<?xml version="1.0" standalone="no"?>
<!DOCTYPE svg PUBLIC "-//W3C//DTD SVG 20010904//EN"
 "http://www.w3.org/TR/2001/REC-SVG-20010904/DTD/svg10.dtd">
<svg version="1.0" xmlns="http://www.w3.org/2000/svg"
 width="772.000000pt" height="140.000000pt" viewBox="0 0 772.000000 140.000000"
 preserveAspectRatio="xMidYMid meet">

<g transform="translate(0.000000,140.000000) scale(0.100000,-0.100000)"
fill="#2A7AE4" stroke="none">
<path d="M856 1288 c-59 -16 -131 -91 -150 -157 -23 -79 -24 -702 -1 -779 32
-107 100 -152 230 -151 132 0 217 48 264 148 l26 56 3 328 c2 214 -1 348 -8
382 -24 117 -105 177 -245 181 -44 2 -98 -2 -119 -8z m169 -169 c19 -19 20
-33 20 -365 l0 -346 -28 -24 c-34 -29 -85 -32 -118 -5 l-24 19 -3 339 c-2 363
-1 375 48 401 31 16 79 8 105 -19z"/>
<path d="M1468 1286 c-100 -39 -140 -99 -146 -221 -8 -143 32 -216 186 -343
102 -85 140 -135 148 -196 11 -80 -24 -126 -95 -126 -52 0 -74 29 -79 104 l-4
66 -38 0 c-20 0 -58 -3 -84 -6 l-46 -7 0 -51 c1 -116 38 -194 113 -237 35 -20
56 -24 122 -23 108 0 172 23 224 79 51 56 75 133 68 221 -9 113 -44 162 -231
328 -87 77 -106 111 -106 185 0 42 4 53 26 70 33 26 84 27 114 3 16 -13 24
-32 28 -70 l5 -52 83 0 84 0 0 38 c0 56 -27 136 -57 172 -43 52 -97 73 -193
77 -56 2 -98 -2 -122 -11z"/>
<path d="M3624 1286 c-56 -18 -97 -50 -125 -99 -24 -42 -24 -42 -24 -377 l0
-335 25 -45 c16 -28 43 -55 74 -75 47 -29 54 -30 160 -30 124 0 169 15 219 74
49 58 52 83 52 411 0 343 -5 371 -71 429 -63 56 -211 78 -310 47z m166 -136
c10 -5 23 -24 29 -41 14 -41 15 -540 1 -590 -12 -44 -52 -65 -105 -55 -64 12
-65 17 -65 349 l0 298 25 24 c26 27 80 34 115 15z"/>
<path d="M4250 1281 c-74 -26 -125 -83 -140 -156 -7 -36 -10 -157 -8 -347 3
-278 4 -295 25 -333 45 -84 110 -123 222 -132 139 -12 253 54 279 160 8 30 12
151 12 340 0 322 -5 354 -58 410 -48 51 -98 70 -192 74 -65 3 -98 -1 -140 -16z
m185 -146 l25 -24 0 -299 c0 -288 -1 -300 -21 -326 -16 -21 -29 -26 -64 -26
-27 0 -51 7 -66 19 l-24 19 0 312 0 312 24 19 c34 28 96 25 126 -6z"/>
<path d="M100 710 l0 -582 73 7 c119 11 107 -14 107 230 l0 214 58 6 c114 12
133 17 180 48 33 23 55 48 77 91 30 59 30 61 30 220 0 159 0 162 -30 221 -24
47 -41 66 -79 90 l-49 30 -184 3 -183 4 0 -582z m304 410 c37 -14 49 -67 45
-204 -4 -115 -5 -119 -32 -142 -22 -19 -39 -24 -83 -24 l-54 0 0 190 0 190 49
0 c27 0 61 -4 75 -10z"/>
<path d="M1940 783 l0 -508 187 8 c104 4 212 10 241 13 l52 5 0 71 0 71 -150
-6 -150 -5 0 149 0 149 98 0 c145 0 142 -1 142 83 l0 70 -120 -6 -120 -5 0
139 0 139 150 0 150 0 0 70 0 70 -240 0 -240 0 0 -507z"/>
<path d="M2530 795 l0 -495 29 0 c15 0 56 3 90 6 l61 7 0 488 0 489 -90 0 -90
0 0 -495z"/>
<path d="M2830 799 l0 -490 173 6 c201 8 252 20 308 76 60 60 64 86 64 419 0
331 -4 359 -62 415 -56 54 -108 65 -310 65 l-173 0 0 -491z m340 331 c19 -19
20 -33 20 -319 0 -358 5 -343 -109 -349 l-71 -4 0 346 0 346 70 0 c57 0 74 -4
90 -20z"/>
<path d="M4750 800 l0 -490 80 0 80 0 2 322 3 323 58 -320 c33 -176 60 -321
62 -323 2 -2 41 -4 86 -5 l83 -2 57 335 57 335 1 -336 1 -337 23 -6 c12 -3 50
-6 85 -6 l62 0 0 500 0 500 -124 0 -124 0 -10 -57 c-5 -32 -32 -186 -58 -342
-26 -156 -49 -280 -51 -275 -3 11 -123 661 -123 669 0 3 -56 5 -125 5 l-125 0
0 -490z"/>
<path d="M5617 788 l3 -503 82 -5 c46 -3 86 -4 91 -2 4 2 7 97 7 212 l0 209
110 -6 110 -6 0 77 0 76 -110 0 -110 0 0 156 0 155 143 -2 142 -2 3 71 3 72
-238 0 -238 0 2 -502z"/>
<path d="M6170 770 l0 -520 28 0 c15 0 110 -7 212 -15 102 -8 195 -15 208 -15
22 0 23 2 20 78 l-3 77 -142 9 -143 9 0 449 0 448 -90 0 -90 0 0 -520z"/>
<path d="M6710 750 l0 -540 23 0 c12 0 52 -3 90 -7 l67 -6 0 547 0 546 -90 0
-90 0 0 -540z"/>
<path d="M6990 1284 c0 -4 40 -125 90 -268 l89 -261 -98 -280 -98 -280 51 -8
c28 -4 66 -6 85 -5 l34 3 72 214 71 214 70 -231 69 -231 35 -5 c109 -17 150
-18 150 -5 0 7 -43 146 -95 309 l-95 297 90 262 c50 144 90 267 90 272 0 5
-37 9 -82 9 l-83 0 -64 -200 c-36 -110 -67 -198 -69 -195 -3 3 -33 92 -67 198
l-61 192 -92 3 c-51 1 -92 0 -92 -4z"/>
</g>
</svg>
